<?xml version="1.0" encoding="UTF-8" standalone="no"?>
<!DOCTYPE svg PUBLIC "-//W3C//DTD SVG 1.1//EN" "http://www.w3.org/Graphics/SVG/1.1/DTD/svg11.dtd">
<svg width="100%" height="100%" viewBox="0 0 100 100" version="1.1" xmlns="http://www.w3.org/2000/svg" xmlns:xlink="http://www.w3.org/1999/xlink" xml:space="preserve" xmlns:serif="http://www.serif.com/" style="fill-rule: evenodd; stroke-linejoin: round; clip-rule: evenodd; stroke-miterlimit: 2">
    <g transform="matrix(0.1,0,0,0.1,0,0)">
        <g transform="matrix(-1,0,0,1,1229,-34)">
            <rect x="131.3" y="731.3" width="112.5" height="75" style="fill: #FFFFFF; stroke: black; stroke-width: 11.4px"/>
        </g>
        <g transform="matrix(-1,0,0,1,1229,-34)">
            <rect x="281.3" y="731.3" width="112.5" height="75" style="fill: #FFFFFF; stroke: black; stroke-width: 11.4px"/>
        </g>
        <g transform="matrix(-1,0,0,1,1229,-34)">
            <rect x="206.3" y="843.8" width="112.5" height="75" style="fill: #FFFFFF; stroke: black; stroke-width: 11.4px"/>
        </g>
        <g transform="matrix(-1,0,0,1,1229,-34)">
            <rect x="131.3" y="956.3" width="112.5" height="75" style="fill: #FFFFFF; stroke: black; stroke-width: 11.4px"/>
        </g>
        <g transform="matrix(-1,0,0,1,1229,-34)">
            <rect x="281.3" y="956.3" width="112.5" height="75" style="fill: #FFFFFF; stroke: black; stroke-width: 11.4px"/>
        </g>
        <g transform="matrix(-1,0,0,1,1229,-34)">
            <rect x="356.3" y="843.8" width="112.5" height="75" style="fill: #FFFFFF; stroke: black; stroke-width: 11.4px"/>
        </g>
        <g transform="matrix(-1,0,0,1,1229,-34)">
            <path d="M 431.3 731.3 L 431.3 806.3 L 543.8 806.3 L 543.8 751.9 C 528.5 746.5 513.4 739.7 499 731.3 L 431.3 731.3 Z" style="fill: #FFFFFF; fill-rule: nonzero; stroke: black; stroke-width: 11.4px"/>
        </g>
        <g transform="matrix(-1,0,0,1,1229,-34)">
            <rect x="431.3" y="956.3" width="112.5" height="75" style="fill: #FFFFFF; stroke: black; stroke-width: 11.4px"/>
        </g>
        <g transform="matrix(-1,0,0,1,1229,-34)">
            <rect x="581.3" y="956.3" width="112.5" height="75" style="fill: #FFFFFF; stroke: black; stroke-width: 11.4px"/>
        </g>
        <g transform="matrix(-1,0,0,1,1229,-34)">
            <rect x="656.3" y="843.8" width="112.5" height="75" style="fill: #FFFFFF; stroke: black; stroke-width: 11.4px"/>
        </g>
        <g transform="matrix(-1,0,0,1,1229,-34)">
            <path d="M 881.3 649.3 C 881.3 633 876.5 617.3 867.5 603.8 L 787.5 483.8 L 707.5 603.8 C 698.5 617.3 693.8 633 693.8 649.3 C 693.8 694.5 730.5 731.3 775.7 731.3 L 799.3 731.3 C 844.5 731.3 881.3 694.5 881.3 649.3 L 881.3 649.3 Z" style="fill: #FFFFFF; fill-rule: nonzero; stroke: black; stroke-width: 11.4px"/>
        </g>
        <g transform="matrix(-1,0,0,1,1229,-34)">
            <rect x="506.3" y="843.8" width="112.5" height="75" style="fill: #FFFFFF; stroke: black; stroke-width: 11.4px"/>
        </g>
        <g transform="matrix(-1,0,0,1,1229,-34)">
            <path d="M 405.7 618.8 L 356.3 618.8 L 356.3 693.8 L 451.3 693.8 C 431.7 673.5 415.7 648.7 405.7 618.8 Z" style="fill: #FFFFFF; fill-rule: nonzero; stroke: black; stroke-width: 11.4px"/>
        </g>
        <g transform="matrix(-1,0,0,1,1229,-34)">
            <rect x="731.2" y="768.8" width="112.5" height="37.5" style="fill: #FFFFFF; stroke: black; stroke-width: 11.4px"/>
        </g>
        <g transform="matrix(-1,0,0,1,1229,-34)">
            <path d="M 581.3 762.6 L 581.3 806.3 L 693.8 806.3 L 693.8 768.8 L 637.5 768.8 C 619.9 768.8 600.8 766.7 581.3 762.6 Z" style="fill: #FFFFFF; fill-rule: nonzero; stroke: black; stroke-width: 11.4px"/>
        </g>
        <g transform="matrix(-1,0,0,1,1229,-34)">
            <rect x="56.3" y="618.8" width="112.5" height="75" style="fill: #FFFFFF; stroke: black; stroke-width: 11.4px"/>
        </g>
        <g transform="matrix(-1,0,0,1,1229,-34)">
            <rect x="731.3" y="956.3" width="112.5" height="75" style="fill: #FFFFFF; stroke: black; stroke-width: 11.4px"/>
        </g>
        <g transform="matrix(-1,0,0,1,1229,-34)">
            <rect x="206.3" y="618.8" width="112.5" height="75" style="fill: #FFFFFF; stroke: black; stroke-width: 11.4px"/>
        </g>
        <g transform="matrix(-1,0,0,1,1229,-34)">
            <rect x="881.3" y="956.3" width="37.5" height="75" style="fill: #FFFFFF; stroke: black; stroke-width: 11.4px"/>
        </g>
        <g transform="matrix(-1,0,0,1,1229,-34)">
            <rect x="806.3" y="1068.8" width="112.5" height="75" style="fill: #FFFFFF; stroke: black; stroke-width: 11.4px"/>
        </g>
        <g transform="matrix(-1,0,0,1,1229,-34)">
            <rect x="656.3" y="1068.8" width="112.5" height="75" style="fill: #FFFFFF; stroke: black; stroke-width: 11.4px"/>
        </g>
        <g transform="matrix(-1,0,0,1,1229,-34)">
            <rect x="806.3" y="843.8" width="112.5" height="75" style="fill: #FFFFFF; stroke: black; stroke-width: 11.4px"/>
        </g>
        <g transform="matrix(-1,0,0,1,1229,-34)">
            <path d="M 1074.5 371.1 C 1050.7 337.4 1026.3 302.7 1016.7 261.4 C 985.9 290.7 937.5 349.6 937.5 431.3 L 900 431.3 C 900 383.6 913.6 343.2 931.5 310.3 C 925 257.8 901.4 218.4 878.4 180.3 C 857.5 145.6 835.9 109.8 829.2 65.7 C 819.5 73.6 806.5 88.1 792.4 114.3 C 819 142.7 845.8 189.2 845.8 262.5 L 808.3 262.5 C 808.3 185.7 773.8 144.8 749.5 125.6 C 742.9 165.7 724.4 194.5 706.3 222.5 C 681.7 260.6 656.2 300.1 656.2 375 L 656.2 393.7 L 618.7 393.7 L 618.7 375 C 618.7 365.4 619.2 356.5 619.9 347.9 C 603.1 308.9 577.4 279.4 558.3 261.4 C 548.7 302.7 524.3 337.3 500.5 371.1 C 466.5 419.4 431.2 469.3 431.2 543.7 C 431.2 692.1 566.2 731.2 637.5 731.2 L 689.1 731.2 C 668.8 709.8 656.2 681 656.2 649.3 C 656.2 625.6 663.2 602.7 676.3 583 L 787.5 416.2 L 898.7 583 C 911.8 602.7 918.7 625.6 918.7 649.3 C 918.7 681 906.2 709.8 885.9 731.2 L 937.5 731.2 C 1008.8 731.2 1143.8 692.1 1143.8 543.7 C 1143.8 469.3 1108.5 419.4 1074.5 371.1 L 1074.5 371.1 Z M 525 543.8 L 525 563 L 487.5 563 L 487.5 543.8 C 487.5 537.4 487.8 531.3 488.4 525.3 L 525.7 529 C 525.2 533.8 525 538.7 525 543.7 L 525 543.8 Z M 532.8 496.7 L 497.3 484.6 C 501.4 472.5 506.9 460.3 514.1 447.4 L 546.8 465.6 C 540.8 476.6 536.2 486.7 532.8 496.7 Z M 580.5 414.3 C 575.1 421.9 570.4 428.7 565.9 435.3 L 534.9 414.2 C 539.5 407.4 544.4 400.5 549.3 393.5 L 556.5 383.3 L 587.2 404.8 L 580.5 414.3 Z M 999.3 683.8 L 988.3 648 C 1000.8 644.2 1012.2 639.1 1022 633.1 L 1041.7 664.9 C 1029.1 672.7 1014.9 679.1 999.3 683.8 Z M 1063.9 648.1 L 1038.4 620.6 C 1058.5 601.9 1068.7 576.1 1068.7 543.7 C 1068.7 504.8 1054.2 474.9 1032.3 442 L 1063.6 421.2 C 1085.7 454.6 1106.2 492.6 1106.2 543.8 C 1106.2 586.9 1092 622 1063.9 648.1 L 1063.9 648.1 Z" style="fill: #FFFFFF; fill-rule: nonzero; stroke: black; stroke-width: 11.4px"/>
        </g>
        <g transform="matrix(-1,0,0,1,1229,-34)">
            <rect x="881.3" y="768.8" width="37.5" height="37.5" style="fill: #FFFFFF; stroke: black; stroke-width: 11.4px"/>
        </g>
        <g transform="matrix(-1,0,0,1,1229,-34)">
            <rect x="56.3" y="1068.8" width="112.5" height="75" style="fill: #FFFFFF; stroke: black; stroke-width: 11.4px"/>
        </g>
        <g transform="matrix(-1,0,0,1,1229,-34)">
            <rect x="56.3" y="731.3" width="37.5" height="75" style="fill: #FFFFFF; stroke: black; stroke-width: 11.4px"/>
        </g>
        <g transform="matrix(-1,0,0,1,1229,-34)">
            <rect x="56.3" y="956.3" width="37.5" height="75" style="fill: #FFFFFF; stroke: black; stroke-width: 11.4px"/>
        </g>
        <g transform="matrix(-1,0,0,1,1229,-34)">
            <rect x="56.3" y="843.8" width="112.5" height="75" style="fill: #FFFFFF; stroke: black; stroke-width: 11.4px"/>
        </g>
        <g transform="matrix(-1,0,0,1,1229,-34)">
            <rect x="206.3" y="1068.8" width="112.5" height="75" style="fill: #FFFFFF; stroke: black; stroke-width: 11.4px"/>
        </g>
        <g transform="matrix(-1,0,0,1,1229,-34)">
            <rect x="356.3" y="1068.8" width="112.5" height="75" style="fill: #FFFFFF; stroke: black; stroke-width: 11.4px"/>
        </g>
        <g transform="matrix(-1,0,0,1,1229,-34)">
            <rect x="506.3" y="1068.8" width="112.5" height="75" style="fill: #FFFFFF; stroke: black; stroke-width: 11.4px"/>
        </g>
    </g>
</svg>
